<svg width="121" height="30" viewBox="0 0 121 30" fill="none" xmlns="http://www.w3.org/2000/svg">
<path d="M18.8369 4.32934C18.6299 6.19233 18.4229 7.50333 18.2849 8.26232C18.0779 9.36632 17.8019 10.5393 17.4569 11.7813C17.1119 13.0923 16.6979 14.1963 16.3529 15.1623C16.0769 15.9213 15.5939 17.0253 14.9039 18.4053C14.2139 19.7853 13.6619 20.8893 13.2479 21.5793C12.5579 22.6833 11.7299 23.9252 10.6259 25.3052C9.59095 26.6852 8.76296 27.5822 8.27996 27.9962C7.86596 28.3412 7.72796 28.3412 8.00396 28.0652L8.48696 27.5132C8.62496 27.3752 8.76296 27.2372 8.90096 26.9612C9.03896 26.6852 9.17696 26.5472 9.17696 26.4782C9.17696 26.4782 9.10795 26.5472 9.03895 26.6162C8.96995 26.6852 8.90095 26.8232 8.76295 26.8922C8.00396 27.7892 7.10696 28.4792 6.00297 28.8242C5.72697 28.9622 5.58897 28.9622 5.51997 28.9622C5.45097 28.9622 5.45097 28.8932 5.45097 28.8242V28.7552C5.45097 28.6172 5.38197 28.4102 5.31297 28.2722C5.24397 28.1342 5.17497 28.1342 5.10598 28.0652C5.03698 28.0652 4.89898 28.0652 4.76098 28.1342C4.69198 28.2032 4.62298 28.2032 4.55398 28.2722C4.48498 28.2722 4.48498 28.2722 4.55398 28.2032C4.55398 28.2032 4.62297 28.1342 4.62297 28.0652C4.62297 27.9962 4.55398 27.9272 4.48498 27.8582C4.41598 27.7892 4.34698 27.8582 4.27798 27.8582L4.20898 27.9272C4.13998 27.9272 4.13998 27.7892 4.13998 27.4442C4.13998 27.0302 4.20898 26.7542 4.27798 26.6162C4.27798 26.6162 4.34698 26.5472 4.34698 26.4782C4.34698 26.4092 4.20898 26.4092 3.93298 26.4092L3.58798 26.4782C3.51898 26.4782 3.44998 26.4092 3.44998 26.3402L3.51898 25.9952C3.51898 25.7882 3.65698 25.5122 3.79498 25.3052C3.93298 25.0292 4.13998 24.7532 4.34698 24.4082C4.55398 24.0632 4.76097 23.7872 4.89897 23.5802L5.38198 22.8902C6.14097 21.7863 6.55497 21.0963 6.69296 20.8203C6.96896 20.2683 7.17596 19.9923 7.24496 19.8543L7.58996 19.3713L6.89997 18.8193C5.72697 17.9223 4.69198 16.8183 3.79498 15.5073C2.89799 14.1963 2.13899 12.8853 1.65599 11.5743C0.896997 9.57331 0.413999 8.19332 0.276 7.36533C0.0690007 6.53733 0 5.50234 0 4.12235C0 3.43235 -1.05388e-06 2.94935 0.0689986 2.60435C0.0689986 2.25935 0.138001 2.05236 0.207001 2.05236C0.345 1.98336 0.413996 2.05236 0.482995 2.12136C0.551995 2.25935 0.551999 2.19036 0.551999 2.05236C0.551999 1.91436 0.620997 1.84536 0.689997 1.77636C0.758996 1.77636 0.827998 1.77635 0.896998 1.91435C0.896998 1.91435 0.896997 1.98335 0.965996 1.98335C0.965996 1.98335 1.03499 1.84536 1.17299 1.50036C1.24199 1.22436 1.31099 1.01736 1.44899 0.948358C1.51799 0.879358 1.72499 0.741363 2.06999 0.672364C2.55299 0.534364 3.24298 0.465363 4.13998 0.465363C5.31297 0.465363 5.93397 0.534363 6.00297 0.741362C6.07197 0.879361 6.20997 0.948359 6.27897 0.879359C6.34797 0.81036 6.41697 1.08636 6.48597 1.63835C6.55497 2.19035 6.62396 3.08735 6.69296 4.32934C6.83096 7.08933 7.31396 9.29732 8.07296 10.9533C8.21096 11.2983 8.55595 11.8503 9.10795 12.6093C9.65995 13.3683 10.0049 13.7823 10.1429 13.8513C10.2809 13.9203 10.4879 13.4373 10.8329 12.4023C11.1089 11.3673 11.3849 10.4013 11.5229 9.43532L11.8679 7.22733C11.9369 6.67533 12.0059 6.12333 12.0059 5.70933C12.0059 5.36434 12.1439 4.67434 12.3509 3.50135C12.5579 2.32835 12.6959 1.70735 12.8339 1.63835C12.9029 1.56935 13.0409 1.56936 13.1099 1.70736C13.1789 1.77636 13.1789 1.84536 13.2479 1.77636C13.2479 1.77636 13.2479 1.70735 13.2479 1.63835C13.2479 1.50036 13.3169 1.43136 13.3859 1.36236C13.4549 1.36236 13.5239 1.36236 13.5929 1.50036C13.5929 1.50036 13.5929 1.56936 13.6619 1.56936C13.7309 1.56936 13.7999 1.50036 13.8689 1.29336L14.1449 0.810361C14.2139 0.672361 14.7659 0.60336 15.6629 0.60336C16.2149 0.60336 16.5599 0.603364 16.8359 0.672364C17.3879 0.741363 17.8709 0.81036 18.2159 0.879359C18.5609 0.948359 18.9059 1.15536 19.3199 1.29336C19.1129 1.50036 19.0439 2.46635 18.8369 4.32934ZM0.896998 4.05334C0.827998 3.98434 0.827998 3.98434 0.896998 4.05334C0.827998 4.05334 0.827994 4.12234 0.827994 4.19134C0.827994 4.26034 0.827994 4.32934 0.827994 4.39834C0.827994 4.46734 0.827998 4.46734 0.896998 4.39834C0.896998 4.26034 0.896998 4.12234 0.896998 4.05334ZM0.965996 1.56936C0.965996 1.56936 0.965996 1.50036 0.965996 1.43136C0.965996 1.36236 0.965995 1.36236 1.03499 1.29336C1.03499 1.29336 1.10399 1.29336 1.10399 1.36236C1.03499 1.43136 1.035 1.50036 0.965996 1.56936C0.965996 1.63836 0.965996 1.63836 0.965996 1.56936ZM0.965996 2.81135C0.965996 2.74235 0.896998 2.81135 0.896998 2.94935C0.896998 3.15635 0.896997 3.22535 0.965996 3.15635C1.035 3.08735 1.035 2.94935 0.965996 2.81135ZM13.1789 2.94935C13.1789 2.88035 13.1789 2.88035 13.1789 2.94935C13.1099 3.01835 13.1099 3.08735 13.1099 3.15635C13.1099 3.22535 13.1099 3.29435 13.1099 3.36335C13.1099 3.43235 13.1099 3.43235 13.1789 3.36335C13.2479 3.22535 13.2479 3.08735 13.1789 2.94935Z" fill="#30150A"/>
<path d="M40.9168 25.3742C40.9168 26.3402 40.9168 26.9612 40.8478 27.0992L40.7098 27.7892L40.6408 26.8922C40.5718 26.0642 40.5028 25.6502 40.4338 25.6502C40.4338 25.6502 40.3648 25.9262 40.3648 26.4092C40.3648 26.9612 40.2958 27.5132 40.0888 28.0652C39.9508 28.6172 39.7438 29.1002 39.5368 29.3762C39.3988 29.6522 39.2608 29.6522 39.1918 29.5142C39.1918 29.3762 39.0538 29.3072 38.8468 29.3072C38.6398 29.3072 38.5018 29.3762 38.3638 29.5832C38.3638 29.7212 38.2948 29.7212 38.2948 29.7902C38.2948 29.7902 38.2258 29.7212 38.0878 29.6522C37.9498 29.5142 37.8808 29.5142 37.8808 29.5142C37.8118 29.5142 37.8118 29.5832 37.7428 29.7902C37.7428 29.9972 37.6738 30.0662 37.6048 29.9282C37.6048 29.7212 37.4668 29.5142 37.1908 29.3762C36.9148 29.1692 36.7078 29.1002 36.5698 29.2382C36.4318 29.2382 36.1558 29.3072 35.8108 29.3762C35.4658 29.4452 35.0518 29.5142 34.5688 29.5142C33.8789 29.5832 33.3269 29.5832 32.9819 29.5832C30.2219 29.5832 27.8759 28.8932 26.0129 27.4442C25.2539 26.8922 24.6329 26.3402 24.1499 25.6502C23.6669 24.9602 23.1839 24.0632 22.7009 22.9592C22.1489 21.6483 21.7349 20.1992 21.4589 18.6813C21.1829 17.1633 20.8379 14.6793 20.4929 11.3673C20.3549 9.84931 20.2169 8.40032 20.2169 6.88232C20.2169 5.01933 20.3549 3.50134 20.5619 2.25934C20.6999 1.70735 20.7689 1.36235 20.8379 1.22435C20.9069 1.08635 20.9759 1.15535 21.1139 1.29335C21.1829 1.36235 21.2519 1.43135 21.3209 1.43135C21.3899 1.43135 21.3899 1.43135 21.3899 1.29335C21.3899 1.15535 21.4589 1.08635 21.5279 1.08635C21.5969 1.08635 21.6659 1.15535 21.7349 1.29335L21.8039 1.36235C21.8729 1.36235 21.9419 1.22435 22.0109 1.01735C22.0799 0.879353 22.1489 0.741354 22.2179 0.672354C22.2869 0.534355 22.4249 0.465353 22.4939 0.465353C22.7009 0.396354 23.0459 0.396355 23.5979 0.396355C24.4259 0.396355 24.9779 0.465352 25.2539 0.534352C25.5299 0.672351 25.8059 0.67235 25.9439 0.60335H26.0129C26.1509 0.60335 26.3579 0.672352 26.6339 0.810352C26.9789 0.948351 27.1859 1.08635 27.2549 1.08635C27.3239 1.08635 27.3929 1.29335 27.3929 1.63835C27.3929 2.19034 27.3239 3.01834 27.2549 4.26033C27.1169 5.77833 27.1169 7.22732 27.1169 8.53831C27.1169 10.4013 27.1859 12.2643 27.3239 14.1273C27.4619 15.9903 27.5999 17.4393 27.8069 18.4743C27.9449 19.3023 28.2209 20.1303 28.4969 20.8203C28.7729 21.5102 29.0489 22.0622 29.3249 22.4072C29.6699 22.7522 30.0839 23.0972 30.7049 23.3732C31.1189 23.5802 31.7399 23.7182 32.5679 23.8562C33.3958 23.9942 34.0169 24.0632 34.5688 24.0632C34.9828 24.0632 35.1898 23.9942 35.1898 23.9252C35.2588 23.8562 35.1898 23.3732 35.1208 22.5452L34.8448 18.6813C34.5688 13.7823 34.3618 10.6773 34.1548 9.43531C34.0168 8.60731 33.9478 7.29632 33.9478 5.64033C33.9478 4.60533 33.9478 3.77733 34.0168 3.01834C34.0858 2.32834 34.1548 1.98334 34.2928 1.98334C34.4308 1.98334 34.4998 2.05235 34.4998 2.12135C34.4998 2.19035 34.5688 2.12134 34.6378 1.98334C34.7068 1.77634 34.7758 1.70735 34.7758 1.70735C34.7758 1.70735 34.8448 1.77635 34.9138 1.91435L34.9828 2.05235C35.0518 2.05235 35.0518 1.91435 35.1208 1.70735C35.1898 1.43135 35.2588 1.22435 35.3968 1.08635C35.5348 0.948352 35.7418 0.879351 36.0178 0.810352C36.1558 0.741352 36.6388 0.741353 37.3978 0.741353C38.4328 0.741353 39.2608 0.810351 39.8128 0.87935C40.1578 1.01735 40.3648 1.08635 40.3648 1.15535C40.4338 1.22435 40.4338 1.43135 40.4338 1.70735L40.5028 4.46734C40.5718 6.33033 40.6408 8.88331 40.6408 12.1953C40.7098 15.6453 40.7788 18.0603 40.7788 19.5093C40.9168 21.3033 40.9168 23.3732 40.9168 25.3742ZM21.6659 1.70735C21.6659 1.70735 21.5279 1.98335 21.3899 2.53534C21.3899 2.88034 21.3899 2.94934 21.4589 2.81134C21.4589 2.81134 21.5969 2.53534 21.7349 1.98334C21.7349 1.63835 21.7349 1.56935 21.6659 1.70735ZM35.0518 24.2012C35.1208 24.2012 35.1208 24.1322 35.1898 24.1322C35.1898 24.0632 35.1208 24.0632 34.9828 24.0632C34.8448 24.0632 34.7068 24.0632 34.6378 24.1322C34.5688 24.1322 34.4998 24.2012 34.4308 24.2012C34.4308 24.2702 34.5688 24.2702 34.7758 24.2702C34.9138 24.2012 34.9828 24.2012 35.0518 24.2012ZM34.8448 2.88034C34.8448 2.67334 34.8448 2.60434 34.7758 2.60434C34.7758 2.60434 34.7068 2.81134 34.6378 3.15634C34.6378 3.29434 34.5688 3.43234 34.5688 3.50134C34.5688 3.57034 34.5688 3.57034 34.6378 3.50134C34.7758 3.29434 34.8448 3.08734 34.8448 2.88034Z" fill="#30150A"/>
<path d="M62.7897 10.9533C62.7897 10.9533 62.7897 11.2293 62.7897 11.7123C62.7897 12.7473 62.7207 13.5063 62.5137 14.1273L62.3067 14.7483H60.5817V17.9913C60.5127 20.3373 60.4437 21.5793 60.3747 21.7173L60.2367 22.2003L60.3057 21.6483C60.3057 21.2343 60.3057 20.8893 60.2367 20.7513L60.1677 20.5443C60.1677 20.5443 60.0987 20.6823 60.0987 20.9583C60.0987 21.2343 60.0297 21.6483 59.8227 22.1312C59.6157 22.6142 59.4087 22.9592 59.2017 23.2352C58.9947 23.5112 58.8567 23.5802 58.7877 23.3732C58.7877 23.3042 58.7187 23.3042 58.5807 23.2352C58.5117 23.1662 58.3737 23.1662 58.2357 23.1662C58.0287 23.1662 57.8907 23.2353 57.8217 23.3043C57.8217 23.3732 57.7527 23.3732 57.6837 23.3732C57.6147 23.3732 57.5457 23.3732 57.4767 23.3732C57.4077 23.3042 57.3387 23.3042 57.4077 23.3732C57.4077 23.4422 57.4767 23.5112 57.6147 23.5802C57.8907 23.7872 58.0287 23.9252 58.0977 23.9252C58.1667 23.9252 58.1667 23.9252 58.1667 23.9942C58.0977 24.0632 57.7527 23.9252 57.1317 23.6492C56.5797 23.3732 56.1657 23.1662 56.0277 23.1662H55.9587C55.9587 23.3042 56.3037 23.5112 56.9247 23.7872L58.5807 24.7532C58.9257 24.9602 59.3397 25.2362 59.7537 25.7192C60.2367 26.1332 60.3747 26.3402 60.1677 26.2712H60.0987C59.9607 26.2712 59.7537 26.3402 59.6157 26.4782C59.4777 26.6162 59.4087 26.7542 59.4087 26.8232C59.4087 26.8922 59.5467 27.0302 59.8227 27.1682L60.1677 27.3062H59.7537C59.4777 27.3062 59.3397 27.3752 59.3397 27.4442C59.3397 27.5132 59.4777 27.5822 59.6847 27.7202C59.8917 27.8582 59.8917 27.8582 59.6157 27.7892C59.5467 27.7892 59.4777 27.7202 59.3397 27.7202C59.2017 27.7202 59.0637 27.7892 58.9947 27.8582C58.8567 27.9962 58.6497 27.9962 58.3047 27.9272L58.0287 27.8582C57.8907 27.8582 57.8907 27.8582 57.8907 27.9272C57.8907 28.0652 58.0977 28.2032 58.4427 28.4102C58.5807 28.4792 58.6497 28.5482 58.6497 28.6172C58.6497 28.6862 58.6497 28.6862 58.5807 28.6862L57.6837 28.7552C57.3387 28.7552 56.9937 28.6862 56.5797 28.6172C56.1657 28.5482 55.7517 28.4102 55.1997 28.2722C53.7507 27.7892 52.5087 27.3062 51.4737 26.7542C50.4387 26.2022 49.3347 25.5122 48.2307 24.6152C45.8848 22.8212 44.1598 20.6133 43.1248 18.0603C42.6418 16.9563 42.2968 15.9903 42.1588 15.2313C42.0208 14.4723 41.9518 13.5063 41.9518 12.3333C41.9518 11.1603 42.0208 10.3323 42.1588 9.91831C42.2968 9.50431 42.6418 9.09032 43.1938 8.67632C43.4698 8.46932 43.7458 8.33132 43.9528 8.33132C44.1598 8.26232 44.8498 8.19332 45.9538 8.12432C47.0578 8.05532 48.5757 7.91732 50.5767 7.84832L53.7507 7.71033L53.8197 5.15734C53.8887 2.74235 54.0957 1.63836 54.3717 1.77636C54.4407 1.84536 54.5097 1.77636 54.5787 1.70736C54.6477 1.63836 54.6477 1.56936 54.7167 1.56936C54.7167 1.56936 54.7857 1.63836 54.8547 1.70736L54.9237 1.77636C55.0617 1.77636 55.1307 1.63835 55.2687 1.29336C55.4067 1.08636 55.4757 0.94836 55.6137 0.810361C55.7517 0.741361 55.8897 0.672359 56.0967 0.60336C56.4417 0.53436 56.9247 0.465363 57.6837 0.465363C58.8567 0.465363 59.5467 0.534364 59.6847 0.672364C59.7537 0.741363 59.7537 0.741361 59.8227 0.810361C59.8917 0.810361 59.8917 0.879359 59.8917 0.879359C60.0297 0.879359 60.1677 0.879358 60.2367 0.948358C60.3747 0.948358 60.4437 1.08636 60.4437 1.15536C60.4437 1.29336 60.5127 1.63836 60.5127 2.19035C60.5127 2.74235 60.5127 3.57035 60.5127 4.53634V8.05532L60.9957 8.12432C61.3407 8.12432 61.4787 8.26232 61.4787 8.40032C61.4787 8.53832 61.5477 8.67632 61.6167 8.74532C61.6857 8.74532 61.6857 8.81432 61.6857 8.88332C61.6857 8.95232 61.6167 8.95232 61.5477 9.02132L61.4787 9.09032C61.4787 9.09032 61.6167 9.22832 61.8237 9.36632C62.0997 9.50432 62.2377 9.57332 62.3067 9.71132C62.3757 9.84932 62.4447 10.1253 62.4447 10.5393C62.7897 10.8843 62.7897 10.9533 62.7897 10.9533ZM55.1307 21.0963C54.9927 20.4063 54.8547 19.1643 54.7857 17.3703L54.5787 14.7483L51.5427 14.6103L48.5067 14.5413L48.6447 15.0933C48.8517 15.7833 49.2657 16.6113 49.8177 17.5083C50.4387 18.4053 51.1287 19.2333 51.8187 19.9233C52.3707 20.4063 53.0607 20.9583 53.9577 21.5793C54.8547 22.2003 55.2687 22.4072 55.3377 22.3382L55.1307 21.0963ZM54.9237 3.57035C54.9237 3.98434 54.9237 4.19135 54.9927 4.12235C54.9927 4.12235 55.0617 3.77735 55.1307 3.22535C55.1997 2.74235 55.1997 2.53535 55.0617 2.74235C54.9927 2.81135 54.9237 3.15635 54.9237 3.57035ZM56.6487 23.0972C56.6487 23.0972 56.6487 23.0972 56.6487 23.0282C56.5797 22.9592 56.5797 22.9592 56.5107 22.8902C56.3727 22.8212 56.3727 22.8213 56.3727 22.9593C56.3727 23.0973 56.4417 23.0972 56.5107 23.0972C56.6487 23.0972 56.6487 23.0972 56.6487 23.0972Z" fill="#30150A"/>
<path d="M71.3457 24.1322C71.3457 24.1322 71.3457 24.6842 71.3457 25.7192C71.3457 26.5472 71.2767 27.2372 71.2077 27.7892C71.1387 28.4102 71.0007 28.6862 70.9317 28.6862C70.7937 28.6862 70.6557 28.6172 70.6557 28.4792C70.6557 28.4102 70.6557 28.4102 70.5867 28.4792C70.5177 28.5482 70.5177 28.6172 70.5177 28.6862C70.4487 28.8242 70.4487 28.9622 70.3797 28.9622C70.3797 28.9622 70.3107 28.8932 70.2417 28.7552C70.2417 28.6172 70.1727 28.6172 70.1037 28.6172C70.1037 28.6172 70.0347 28.7552 69.9657 29.0312C69.8277 29.4452 69.6207 29.6522 69.3447 29.6522C68.9307 29.7902 68.2407 29.7902 67.2747 29.7902C66.8607 29.7902 66.6537 29.7902 66.5157 29.7212C66.3777 29.7212 65.9637 29.6522 65.3427 29.5142L64.6527 29.3762L64.7217 25.1672C64.7907 21.8552 64.8597 19.4403 64.9287 17.9223C64.9977 16.4043 65.0667 15.5763 65.1357 15.3693L65.2047 15.2313C65.2047 15.2313 65.2737 15.3693 65.2737 15.7143C65.2737 16.0593 65.2737 16.2663 65.3427 16.2663C65.3427 16.2663 65.4117 16.0593 65.4807 15.5763C65.4807 15.4383 65.6187 15.1623 65.7567 14.8863C65.9637 14.6103 66.1017 14.3343 66.3087 14.1963C66.5157 13.9893 66.5847 13.9893 66.5847 14.1273C66.5847 14.2653 66.8607 14.2653 67.3437 14.2653C67.5507 14.2653 67.6887 14.2653 67.8957 14.1963C68.0337 14.1963 68.1717 14.1273 68.1717 14.0583C68.1717 14.0583 68.1717 13.9893 68.2407 13.9893C68.3097 13.9893 68.3787 14.0583 68.5857 14.1273C68.7237 14.1963 68.8617 14.3343 68.9307 14.4033C68.9307 14.4033 68.9997 14.4723 69.0687 14.4723C69.2067 14.4723 69.3447 14.4723 69.4137 14.4033C69.5517 14.2653 69.6897 14.2653 69.7587 14.2653C69.8277 14.2653 69.8967 14.3343 69.9657 14.4723C70.2417 14.9553 70.4487 15.5763 70.5867 16.4043C70.7247 17.2323 70.8627 18.4053 70.9317 19.8543C71.0007 21.0273 71.0697 22.0622 71.2077 23.0282C71.3457 23.7872 71.3457 24.1322 71.3457 24.1322ZM69.7587 5.29533C69.7587 5.43333 69.7587 5.36433 69.8277 5.15733C69.8967 4.46733 69.9657 4.12233 69.9657 3.98433C69.9657 3.63933 69.9657 3.43234 69.8967 3.43234C69.8967 3.43234 69.8277 3.84633 69.7587 4.60533C69.7587 4.95033 69.7587 5.22633 69.7587 5.29533ZM69.8967 9.15931C69.8967 9.15931 69.9657 9.2973 69.9657 9.5733C69.9657 9.8493 69.8967 9.9183 69.8277 9.9183C69.7587 9.9183 69.7587 9.7803 69.7587 9.5733C69.8277 9.2973 69.8967 9.15931 69.8967 9.15931ZM69.8967 2.12134C69.8967 2.12134 69.8967 2.12134 69.8277 2.05235V2.53534C69.8277 2.94934 69.8277 3.08734 69.8967 2.94934C69.8967 2.88034 69.9657 2.74234 69.9657 2.60434C69.9657 2.32834 69.9657 2.19034 69.8967 2.12134ZM70.3797 27.5822C70.3107 27.5132 70.3797 27.5132 70.3797 27.5822C70.3107 27.6512 70.3107 27.7202 70.3107 27.8582C70.3107 27.9962 70.3107 28.0652 70.3107 28.1342C70.3107 28.2032 70.3107 28.2032 70.3797 28.1342C70.4487 27.9272 70.4487 27.7202 70.3797 27.5822ZM70.5177 26.7542C70.5177 26.6852 70.4487 26.7542 70.4487 26.8922C70.4487 27.0992 70.4487 27.1682 70.5177 27.0992C70.5867 26.9612 70.5867 26.8922 70.5177 26.7542Z" fill="#30150A"/>
<path d="M89.3545 27.0992C89.3545 27.0992 89.2855 27.0992 89.2165 27.0992C89.1475 27.0992 89.1475 26.9612 89.0785 26.6162C89.0785 26.3402 89.0095 26.1332 88.9405 25.9952C88.8715 25.8572 88.8715 25.7192 88.8025 25.7192C88.8025 25.7192 88.8025 25.7882 88.8025 25.9952L88.8715 26.7542C88.8715 27.5132 88.8025 28.2032 88.7335 28.7552C88.5955 29.3762 88.5265 29.5832 88.3885 29.3762C88.3885 29.3072 88.3195 29.2382 88.1815 29.2382C88.1125 29.1692 87.9745 29.1692 87.9055 29.1692C87.7675 29.1692 87.6985 29.1692 87.6295 29.2382C87.5605 29.2382 87.5605 29.3072 87.4915 29.4452C87.4915 29.5832 87.4225 29.6522 87.4225 29.6522C87.3535 29.6522 87.2845 29.6522 87.2155 29.5832C87.0775 29.5832 87.0085 29.5142 87.0085 29.5832C86.9395 29.5832 86.9395 29.6522 87.0085 29.7902C87.0085 29.9282 87.0085 29.9972 86.9395 29.8592C86.8015 29.7212 86.6635 29.5832 86.5255 29.5832C86.3185 29.5142 86.1805 29.3762 86.0425 29.1692L85.9045 28.8242L85.6975 29.3072C85.6285 29.5142 85.5595 29.6522 85.5595 29.6522C85.5595 29.6522 85.4905 29.6522 85.3525 29.5142L84.8696 29.1002C84.6626 28.8932 84.4556 27.8582 84.1796 25.9262C83.9036 23.9942 83.7656 22.6832 83.6966 21.9933H79.1426L79.0046 24.4082C78.9356 25.9262 78.8666 26.9612 78.7286 27.4442L78.5906 28.0652V27.3752C78.6596 26.5472 78.6596 26.0642 78.5216 26.0642C78.4526 26.0642 78.4526 26.2712 78.3836 26.7542C78.3836 27.1682 78.2456 27.6512 78.1076 28.1342C77.9696 28.6172 77.7626 29.0312 77.5556 29.3072C77.3486 29.5832 77.2106 29.6522 77.1416 29.5832C77.0036 29.3762 76.8656 29.3072 76.6586 29.3072C76.5206 29.3072 76.3136 29.4452 76.1756 29.6522C76.1066 29.7902 76.0376 29.8592 76.0376 29.8592C75.9686 29.8592 75.9686 29.8592 75.9686 29.7212C75.9686 29.5832 75.8996 29.5142 75.6926 29.5142H75.5546C75.2786 29.5142 75.0026 29.3072 74.7956 28.8242C74.7266 28.6862 74.6576 28.6172 74.6576 28.6172L74.4506 28.9622C74.3816 29.1692 74.3126 29.2382 74.1746 29.2382C74.1056 29.2382 73.9676 29.0312 73.8296 28.6862C73.5536 28.1342 73.3466 26.8232 73.2086 24.7532C73.0706 22.6832 72.9326 20.1993 72.9326 17.2323C72.9326 15.2313 72.8636 13.1613 72.7946 10.9533C72.6566 9.15932 72.6566 7.57233 72.6566 6.26134C72.6566 5.01934 72.7256 3.98435 72.7946 3.15635C72.9326 2.12136 73.0706 1.63836 73.2086 1.63836C73.3466 1.63836 73.4156 1.70736 73.4156 1.91436C73.4156 2.05236 73.4846 1.98336 73.5536 1.77636C73.6916 1.50036 73.7606 1.43136 73.8296 1.63836C73.8986 1.70736 73.8986 1.70736 73.9676 1.70736C74.0366 1.63836 74.0366 1.56936 74.1056 1.50036C74.1746 1.22436 74.2436 1.01736 74.3816 0.94836C74.5196 0.81036 74.7956 0.741364 75.1406 0.741364C75.6236 0.672364 77.7626 0.603361 81.5576 0.603361L85.6286 0.534363C86.8015 0.534363 87.4225 0.603365 87.4915 0.741364C87.6295 0.879363 87.9055 1.01736 88.1815 1.08636L88.6645 1.15536L88.5955 3.50135C88.5265 4.81234 88.4575 7.50333 88.4575 11.5053C88.4575 14.1273 88.6645 17.9913 89.0785 23.0282C89.2165 24.6152 89.2855 25.6502 89.2855 25.9952C89.3545 26.7542 89.3545 27.0992 89.3545 27.0992ZM73.8986 1.22436C73.8986 1.15536 73.8986 1.15536 73.9676 1.08636C73.9676 1.08636 74.0366 1.08636 74.0366 1.15536C74.1056 1.29336 74.1056 1.43136 73.9676 1.43136C73.8986 1.50036 73.8986 1.43136 73.8986 1.22436ZM79.1426 21.0963C79.1426 21.0963 79.2116 21.1653 79.2806 21.1653C79.4876 21.1653 79.5566 21.1653 79.4876 21.0963C79.3496 21.0273 79.2806 21.0273 79.2116 21.0273C79.0736 21.0963 79.0736 21.0963 79.1426 21.0963ZM80.7296 15.5073L82.3166 15.4383L82.2476 15.0933C82.1786 14.6793 82.1096 13.9203 82.1096 12.7473C82.1096 11.8503 81.9716 10.6083 81.8336 9.09032L81.6956 7.22733H80.5916C79.9016 7.22733 79.4876 7.29633 79.4186 7.36533C79.3496 7.43433 79.2806 8.81432 79.2806 11.5743L79.1426 15.6453L80.7296 15.5073ZM79.6256 21.5793C79.6946 21.5103 79.6946 21.5793 79.6256 21.5793C79.4876 21.4413 79.3496 21.4413 79.1426 21.5103C79.0736 21.5103 79.0736 21.5793 79.1426 21.5793C79.2116 21.5793 79.2806 21.5793 79.3496 21.5793C79.4876 21.5793 79.6256 21.5793 79.6256 21.5793ZM80.0396 6.33033C80.0396 6.33033 80.0396 6.33033 79.9706 6.39933C79.9706 6.39933 80.0396 6.39933 80.1776 6.39933C80.3156 6.39933 80.4536 6.39933 80.6606 6.39933C80.9366 6.39933 81.0746 6.39933 81.2126 6.39933C81.3506 6.39933 81.3506 6.39933 81.1436 6.33033C81.0746 6.33033 80.8676 6.26134 80.5916 6.26134C80.3846 6.26134 80.2466 6.26133 80.0396 6.33033ZM81.6266 21.0963L81.2126 21.0273C81.1436 21.0273 81.1436 21.0963 81.2126 21.0963C81.2816 21.0963 81.3506 21.0963 81.4196 21.0963C81.4886 21.0963 81.5576 21.0963 81.6266 21.0963ZM83.0066 21.2343C83.0756 21.2343 83.0756 21.2343 83.0066 21.2343C82.9376 21.1653 82.7996 21.1653 82.6616 21.1653C82.5236 21.1653 82.3856 21.1653 82.3166 21.2343L82.2476 21.3033C82.2476 21.3033 82.3856 21.3723 82.6616 21.3723C82.7996 21.3033 82.9376 21.3033 83.0066 21.2343Z" fill="#30150A"/>
<path d="M111.572 4.67433C111.572 4.67433 111.572 5.98533 111.572 8.53831C111.572 10.7463 111.434 12.8853 111.227 15.0933L110.882 19.0953C110.813 19.9233 110.675 21.0272 110.468 22.4762C110.261 23.9252 110.054 25.0292 109.916 25.8572C109.847 26.2712 109.778 26.7542 109.571 27.3062C109.433 27.8582 109.295 28.1342 109.226 28.0652L109.295 27.5132C109.364 27.2372 109.433 26.8922 109.433 26.4782V26.1332C109.433 26.1332 109.364 26.2022 109.364 26.2712C109.364 26.3402 109.295 26.4782 109.295 26.6162C109.226 27.0302 109.019 27.5132 108.812 28.0652C108.536 28.6172 108.26 29.0312 107.984 29.4452C107.846 29.6522 107.708 29.7902 107.639 29.7902C107.57 29.8592 107.501 29.7902 107.501 29.6522C107.501 29.5142 107.432 29.3762 107.363 29.2382C107.225 29.1692 107.156 29.1002 107.018 29.1002C106.742 29.1002 106.673 29.2382 106.673 29.4452C106.673 29.5142 106.673 29.5832 106.673 29.5832C106.673 29.5832 106.604 29.5142 106.604 29.4452C106.535 29.3762 106.466 29.3072 106.466 29.2382C106.397 29.1692 106.397 29.1692 106.328 29.1692C106.259 29.1692 106.19 29.2382 106.121 29.4452C106.121 29.5142 106.121 29.5832 106.052 29.5142C106.052 29.5142 105.983 29.4452 105.983 29.3072C105.983 29.1002 105.914 28.9622 105.707 28.8242C105.569 28.8242 105.5 28.6172 105.431 28.3412L105.362 27.9962L104.672 28.6862L104.396 28.1342C104.327 27.9272 104.258 27.4442 104.258 26.8232C104.258 25.5122 104.396 23.0282 104.741 19.3713C104.948 17.1633 105.086 15.2313 105.086 13.5063L105.224 10.9533L104.672 11.3673C104.258 11.7123 103.499 12.2643 102.464 13.0233C101.429 13.7823 100.463 14.4033 99.6355 14.9553L98.2555 15.8523L98.0485 18.0603C97.9105 19.9923 97.5655 21.9242 97.1515 23.7872C96.7375 25.6502 96.2545 26.9612 95.8405 27.6512C95.7715 27.7892 95.7025 27.9272 95.6335 27.9272C95.5645 27.9962 95.5645 27.9962 95.5645 27.9272C96.0475 26.6852 96.2545 25.9952 96.1855 25.9262H96.1165C96.1165 25.9952 96.0475 25.9952 96.0475 26.1332C95.6335 27.3752 94.8745 28.4792 93.8395 29.3072C93.7015 29.3762 93.6325 29.4452 93.6325 29.3762C93.6325 29.3762 93.5635 29.3072 93.5635 29.1692C93.5635 28.9622 93.4945 28.8242 93.2875 28.6862C93.0805 28.5482 92.9425 28.6172 92.8045 28.7552C92.7355 28.8242 92.6665 28.8932 92.5975 28.8932C92.5285 28.8932 92.5285 28.8242 92.3905 28.7552C92.3215 28.6172 92.2525 28.6172 92.1835 28.5482C92.1145 28.5482 92.1145 28.6172 92.0455 28.6862C91.9075 28.8932 91.9075 28.8242 91.9075 28.6172C91.9075 28.4102 91.8385 28.2722 91.7695 28.2032C91.7005 28.1342 91.7005 27.9272 91.7005 27.7202L91.7695 27.4442C91.7695 27.4442 91.7695 27.3752 91.7005 27.3752C91.6315 27.3752 91.4935 27.4442 91.3555 27.5132C91.2175 27.5822 91.0795 27.6512 91.0105 27.6512C90.8035 27.6512 90.6655 27.4442 90.6655 26.9612C90.6655 26.6852 90.7346 25.9952 90.9416 25.0292C91.1486 24.0632 91.3556 23.1662 91.4936 22.2693C91.6316 21.4413 91.7696 20.4063 91.8386 19.2333C91.9765 17.9223 92.0455 17.1633 92.0455 16.9563C92.0455 16.6803 91.9765 16.4733 91.9075 16.3353C91.7695 16.1973 91.7695 16.0593 91.9075 15.9903C91.9765 15.9213 91.9765 15.9213 91.9765 15.9213C91.9765 15.9213 91.9075 15.9213 91.8386 15.9213C91.7006 15.9213 91.6315 15.8523 91.5625 15.7833C91.5625 15.7143 91.5625 15.6453 91.7005 15.5763C91.7005 15.5763 91.7695 15.5763 91.7695 15.5073C91.7695 15.4383 91.6315 15.3693 91.3555 15.3003C90.9415 15.1623 90.7346 15.0243 90.7346 14.7483C90.6656 14.6103 90.5966 14.4033 90.5276 14.0583C90.4586 13.9203 90.4586 13.5753 90.4586 13.1613C90.4586 12.6783 90.4586 12.1953 90.5276 11.7123C90.5966 11.2293 90.6655 10.8843 90.6655 10.7463C90.8035 10.4703 90.8036 10.2633 90.8036 10.2633C90.8036 10.1943 90.9416 10.1253 91.1486 10.1253C91.3556 10.1253 91.5625 10.1253 91.7695 10.0563C91.9075 10.0563 91.9765 9.91831 91.9765 9.78031C92.0455 9.64231 92.0455 9.22832 92.0455 8.60732C92.0455 7.98632 92.0455 7.15832 92.0455 6.05433C92.0455 4.26034 92.0455 3.01835 92.1145 2.39735C92.1835 1.77635 92.3215 1.43135 92.5285 1.43135C92.5285 1.43135 92.5975 1.43135 92.7355 1.43135C92.8045 1.43135 92.8735 1.43135 92.9425 1.36235C93.0115 1.22436 93.0805 1.29335 93.1495 1.43135L93.2185 1.50035C93.2875 1.50035 93.2875 1.36235 93.3565 1.15535C93.4255 0.810356 93.6325 0.603357 93.9085 0.465357C94.1845 0.396358 94.8745 0.32736 95.8405 0.32736C96.3235 0.32736 96.7375 0.327359 97.0825 0.396359C97.4275 0.396359 97.6345 0.465357 97.8415 0.465357L98.3935 0.603355L98.7385 0.741357V7.91732L99.2215 7.64132C99.7045 7.43432 100.325 7.02032 101.015 6.39933C101.774 5.77833 102.464 5.15734 103.154 4.46734C103.706 3.91534 104.12 3.50134 104.258 3.29434C104.396 3.08734 104.465 2.81134 104.465 2.60435C104.465 2.39735 104.465 2.25935 104.534 2.19035C104.603 2.12135 104.672 2.12135 104.741 2.12135H104.81C105.017 2.12135 105.293 1.91435 105.5 1.43135C105.845 0.948356 106.052 0.741357 106.052 0.741357C106.397 0.741357 106.88 0.534355 107.57 0.258356C108.122 -0.0176423 108.398 -0.0866398 108.398 0.120359C108.398 0.189359 108.467 0.258356 108.605 0.258356C108.743 0.258356 108.95 0.32736 109.226 0.32736C109.778 0.32736 110.123 0.327359 110.261 0.396359C110.468 0.465358 110.537 0.534359 110.675 0.672358C110.744 0.810358 110.813 1.08636 110.882 1.43135C111.365 3.63934 111.572 4.67433 111.572 4.67433ZM93.2185 3.29434C93.2185 3.29434 93.2185 3.22534 93.1495 3.01834C93.1495 3.01834 93.1495 2.94934 93.0805 2.94934C93.0805 2.94934 93.0805 3.01835 93.0805 3.08735C93.0805 3.15635 93.0805 3.22534 93.0805 3.29434C93.0805 3.43234 93.0805 3.50134 93.0805 3.57034C93.0805 3.63934 93.0805 3.63934 93.1495 3.57034C93.1495 3.43234 93.2185 3.29434 93.2185 3.29434ZM93.2875 2.05235C93.2185 1.98335 93.2185 1.98335 93.2875 2.05235C93.2185 2.12135 93.2185 2.19035 93.2185 2.32835C93.2185 2.46635 93.2185 2.53535 93.2185 2.60435C93.2185 2.67335 93.2185 2.67335 93.2875 2.60435C93.3565 2.39735 93.3565 2.19035 93.2875 2.05235Z" fill="#30150A"/>
<path d="M64.7217 9.8493C64.7217 9.8493 64.7217 9.7803 64.7217 9.6423C64.7217 9.5733 64.7217 9.5733 64.6527 9.5043C64.5837 9.5043 64.5837 9.5043 64.5147 9.5043C64.3077 9.5733 64.1697 7.36531 64.1007 2.88034L64.0317 0.603345L64.5837 0.534346C65.0667 0.465347 66.1707 0.396349 67.9647 0.396349L70.7246 0.258347V3.98433C70.7246 5.22632 70.7246 6.19232 70.7246 6.74431C70.7246 7.36531 70.6556 7.64131 70.5176 7.64131C70.3796 7.64131 70.3106 7.43431 70.2416 7.08931C70.2416 6.95131 70.2416 6.88231 70.2416 6.81331C70.2416 6.74431 70.2416 6.74432 70.2416 6.67532L70.1726 7.15831C70.1726 7.57231 70.1036 7.91731 70.0346 8.12431C70.0346 8.19331 69.9656 8.26231 69.9656 8.26231L69.8966 7.77931C69.8966 7.50331 69.8966 7.29631 69.8276 7.29631C69.8276 7.29631 69.7586 7.84831 69.6206 8.95231C69.5516 9.3663 69.4826 9.7803 69.4826 10.0563C69.4136 10.3323 69.3447 10.5393 69.2067 10.6083C69.1377 10.6773 69.0686 10.6773 68.9997 10.7463C68.9307 10.7463 68.8617 10.7463 68.8617 10.7463H68.7926C68.7926 10.7463 68.6547 10.8153 68.5167 11.0223C68.3787 11.2293 68.2407 11.2983 68.0337 11.2983C67.8957 11.2983 67.8267 11.2293 67.7577 11.1603C67.6197 11.0223 67.4817 11.0223 67.2747 11.0913H67.1367C66.9297 11.0913 66.7227 11.0223 66.5847 10.9533C66.4467 10.8843 66.3777 10.8153 66.3087 10.8153C66.2397 10.8153 66.1017 10.8153 66.1017 10.8843C66.1017 10.8843 66.0327 10.9533 65.9637 10.9533C65.8947 10.9533 65.6877 10.8153 65.4117 10.5393C64.8597 10.0563 64.7217 9.8493 64.7217 9.8493Z" fill="#CD0C0D"/>
<circle cx="117" cy="25.5" r="4" fill="#CD0C0D"/>
</svg>
